<?xml version="1.0" encoding="utf-8"?>
<!-- Generator: Adobe Illustrator 24.3.0, SVG Export Plug-In . SVG Version: 6.00 Build 0)  -->
<svg version="1.1" id="Layer_1" xmlns="http://www.w3.org/2000/svg" xmlns:xlink="http://www.w3.org/1999/xlink" x="0px" y="0px"
	 viewBox="0 0 1841.5 1843.2" style="enable-background:new 0 0 1841.5 1843.2;" xml:space="preserve">
<style type="text/css">
	.st0{fill:#FAFCFC;}
	.st1{display:none;}
	.st2{display:inline;}
	.st3{fill:none;stroke:#000000;stroke-width:6;stroke-miterlimit:10;}
	.st4{fill:none;stroke:#FF0000;stroke-width:9;stroke-miterlimit:10;}
	.st5{fill:none;}
	.st6{fill:none;stroke:#C1272D;stroke-width:21;stroke-miterlimit:10;}
	.st7{stroke:#DC143C;stroke-width:24;stroke-miterlimit:10;}
	.st8{font-family:'MarkerFelt-Thin';}
	.st9{font-size:40px;}
	.st10{stroke:#DC143C;stroke-width:32;stroke-miterlimit:10;}
	.st11{fill:none;stroke:#DC143C;stroke-width:24;stroke-miterlimit:10;}
	.st12{fill:none;stroke:#DC143C;stroke-width:18;stroke-miterlimit:10;}
	.st13{display:inline;fill:none;}
	.st14{display:none;enable-background:new    ;}
	.st15{font-family:'MarkerFelt-Wide';}
	.st16{font-size:48px;}
	.st17{fill:#BC4CD5;}
	.st18{fill:#ED4AD2;}
	.st19{fill:#94D638;}
	.st20{fill:#557EED;}
	.st21{fill:none;stroke:#000000;stroke-miterlimit:10;}
	.st22{font-size:30px;}
	.st23{font-family:'SourceSansPro-Regular';}
	.st24{font-size:28px;}
	.st25{font-family:'SourceSansPro-Bold';}
	.st26{font-size:21px;}
	.st27{fill:#EBEBEB;}
	.st28{font-size:34.4085px;}
	.st29{font-size:36px;}
	.st30{fill:#EDE04A;}
	.st31{fill:#4CD5BC;}
	.st32{fill:#4CD577;}
	.st33{fill:#4CA9D5;}
	.st34{fill:#EDA561;}
	.st35{font-family:'MyriadPro-Regular';}
	.st36{font-size:12px;}
</style>
<g id="Layer_8">
	<rect class="st0" width="1841.5" height="1843.2"/>
</g>
<g id="Layer_2_1_" class="st1">
	
		<image style="display:inline;overflow:visible;opacity:0.502;enable-background:new    ;" width="448" height="448" xlink:href="FB5518B4EC2BCBA5.png"  transform="matrix(5.1451 0 0 5.1451 2543.9148 8006.0234)">
	</image>
</g>
<g id="Layer_5" class="st1">
	
		<image style="display:inline;overflow:visible;opacity:0.6118;enable-background:new    ;" width="1127" height="918" xlink:href="FB5518B4EC2BCBAB.png"  transform="matrix(1.7135 0 0 1.7135 631.6731 -1514.6443)">
	</image>
</g>
<g id="Layer_4" class="st1">
	<g class="st2">
		<g>
			<g id="XMLID_48_">
				<g>
					<path class="st3" d="M155.8,2808.9C155.8,1257.6,1093.9,0,2251,0"/>
					<rect x="155.8" class="st3" width="2095.1" height="2808.9"/>
				</g>
			</g>
		</g>
		<g>
			<g id="XMLID_47_">
				<g>
					<path class="st3" d="M2251,0c715.1,0,1294.9,777.2,1294.9,1736"/>
					<rect x="2251" class="st3" width="1294.9" height="1736"/>
				</g>
			</g>
		</g>
		<g>
			<g id="XMLID_46_">
				<g>
					<path class="st3" d="M3545.8,1735.9c0,592.6-358.3,1072.9-800.3,1072.9"/>
					<rect x="2745.5" y="1735.9" class="st3" width="800.3" height="1072.9"/>
				</g>
			</g>
		</g>
		<g>
			<g id="XMLID_45_">
				<g>
					<path class="st3" d="M2745.6,2808.9c-273.2,0-494.6-296.9-494.6-663.1"/>
					<rect x="2251" y="2145.7" class="st3" width="494.6" height="663.1"/>
				</g>
			</g>
		</g>
		<g>
			<g id="XMLID_44_">
				<g>
					<path class="st3" d="M2251,2145.8c0-226.3,136.9-409.8,305.7-409.8"/>
					<rect x="2251" y="1735.9" class="st3" width="305.7" height="409.8"/>
				</g>
			</g>
		</g>
		<g>
			<g id="XMLID_43_">
				<g>
					<path class="st3" d="M2556.7,1736c104.3,0,188.9,113.4,188.9,253.3"/>
					<rect x="2556.7" y="1736" class="st3" width="188.9" height="253.3"/>
				</g>
			</g>
		</g>
		<g>
			<g id="XMLID_42_">
				<g>
					<path class="st3" d="M2745.5,1989.2c0,86.5-52.3,156.6-116.8,156.6"/>
					<rect x="2628.8" y="1989.2" class="st3" width="116.8" height="156.6"/>
				</g>
			</g>
		</g>
		<g>
			<g id="XMLID_41_">
				<g>
					<path class="st3" d="M2628.8,2145.8c-39.9,0-72.2-43.3-72.2-96.8"/>
					<rect x="2556.7" y="2049" class="st3" width="72.2" height="96.8"/>
				</g>
			</g>
		</g>
		<g>
			<g id="XMLID_40_">
				<g>
					<path class="st3" d="M2556.7,2049c0-33,20-59.8,44.6-59.8"/>
					<rect x="2556.7" y="1989.2" class="st3" width="44.6" height="59.8"/>
				</g>
			</g>
		</g>
		<g>
			<g id="XMLID_39_">
				<g>
					<path class="st3" d="M2601.3,1989.3c15.2,0,27.6,16.5,27.6,37"/>
					<rect x="2601.3" y="1989.3" class="st3" width="27.6" height="37"/>
				</g>
			</g>
		</g>
		<g>
			<g id="XMLID_38_">
				<g>
					<path class="st3" d="M2628.8,2026.2c0,12.6-7.6,22.8-17,22.8"/>
					<rect x="2611.8" y="2026.2" class="st3" width="17" height="22.8"/>
				</g>
			</g>
		</g>
		<g>
			<g id="XMLID_37_">
				<g>
					<path class="st3" d="M2611.8,2049c-5.8,0-10.5-6.3-10.5-14.1"/>
					<rect x="2601.3" y="2034.9" class="st3" width="10.5" height="14.1"/>
				</g>
			</g>
		</g>
	</g>
</g>
<g id="Layer_6">
	<g class="st1">
		<g class="st2">
			<line class="st4" x1="-408.5" y1="-1577.9" x2="-444.7" y2="-1485.8"/>
			<line class="st4" x1="-500.7" y1="-1614.1" x2="-408.5" y2="-1577.9"/>
			<line class="st4" x1="-536.8" y1="-1521.9" x2="-500.7" y2="-1614.1"/>
			<line class="st4" x1="-444.7" y1="-1485.8" x2="-536.8" y2="-1521.9"/>
			<line class="st4" x1="-408.5" y1="-1577.9" x2="-444.7" y2="-1485.8"/>
			<line class="st4" x1="-500.7" y1="-1614.1" x2="-408.5" y2="-1577.9"/>
			<line class="st4" x1="-536.8" y1="-1521.9" x2="-500.7" y2="-1614.1"/>
			<line class="st4" x1="-444.7" y1="-1485.8" x2="-536.8" y2="-1521.9"/>
		</g>
		<g class="st2">
			<line class="st4" x1="-407.5" y1="-1527.3" x2="-433.3" y2="-1461.5"/>
			<line class="st4" x1="-473.3" y1="-1553.2" x2="-407.5" y2="-1527.3"/>
			<line class="st4" x1="-499.2" y1="-1487.4" x2="-473.3" y2="-1553.2"/>
			<line class="st4" x1="-433.3" y1="-1461.5" x2="-499.2" y2="-1487.4"/>
			<line class="st4" x1="-407.5" y1="-1527.3" x2="-433.3" y2="-1461.5"/>
			<line class="st4" x1="-473.3" y1="-1553.2" x2="-407.5" y2="-1527.3"/>
			<line class="st4" x1="-499.2" y1="-1487.4" x2="-473.3" y2="-1553.2"/>
			<line class="st4" x1="-433.3" y1="-1461.5" x2="-499.2" y2="-1487.4"/>
		</g>
		<g class="st2">
			<line class="st4" x1="-408.8" y1="-1628.7" x2="-455.3" y2="-1510.2"/>
			<line class="st4" x1="-527.3" y1="-1675.2" x2="-408.8" y2="-1628.7"/>
			<line class="st4" x1="-573.8" y1="-1556.7" x2="-527.3" y2="-1675.2"/>
			<line class="st4" x1="-455.3" y1="-1510.2" x2="-573.8" y2="-1556.7"/>
			<line class="st4" x1="-408.8" y1="-1628.7" x2="-455.3" y2="-1510.2"/>
			<line class="st4" x1="-527.3" y1="-1675.2" x2="-408.8" y2="-1628.7"/>
			<line class="st4" x1="-573.8" y1="-1556.7" x2="-527.3" y2="-1675.2"/>
			<line class="st4" x1="-455.3" y1="-1510.2" x2="-573.8" y2="-1556.7"/>
		</g>
		<g class="st2">
			<line class="st4" x1="-408.9" y1="-1480.6" x2="-424.4" y2="-1441.1"/>
			<line class="st4" x1="-448.4" y1="-1496.1" x2="-408.9" y2="-1480.6"/>
			<line class="st4" x1="-463.9" y1="-1456.6" x2="-448.4" y2="-1496.1"/>
			<line class="st4" x1="-424.4" y1="-1441.1" x2="-463.9" y2="-1456.6"/>
			<line class="st4" x1="-408.9" y1="-1480.6" x2="-424.4" y2="-1441.1"/>
			<line class="st4" x1="-448.4" y1="-1496.1" x2="-408.9" y2="-1480.6"/>
			<line class="st4" x1="-463.9" y1="-1456.6" x2="-448.4" y2="-1496.1"/>
			<line class="st4" x1="-424.4" y1="-1441.1" x2="-463.9" y2="-1456.6"/>
		</g>
	</g>
</g>
<g id="Layer_3">
	<polygon class="st5" points="1316.9,1506.2 1316.9,1506.2 1316.9,1506.2 	"/>
	<path class="st6" d="M745.2,1443.4"/>
</g>
<path class="st7" d="M127,1432.3"/>
<g class="st1">
	<g class="st2">
		<path class="st3" d="M226.3,554.6c-0.7-1-1.5-1.9-2.3-2.8c-3.9-4.4-8-8.6-12.5-12.2c-3.9-3.1-8-5.8-12.2-8.2
			c-3-1.7-6.2-3.1-9.4-4.4c-3.4-1.4-6.8-2.4-10.4-2.9c-3-0.5-6.1-0.6-9.1-0.4c-4.6,0.3-9.1,1.3-13.5,2.8c-4,1.4-8,3.2-11.8,5.4
			c-6,3.5-11.6,7.9-17,12.5c-3.7,3.2-7.5,6.3-10.5,10.4c-0.4,0.5-0.8,1.1-0.7,1.8c0.2,1.1,1.6,1.4,2.1,0.4c1.2-1.9,3.9-4.7,6.2-6.8
			c3-2.7,5.5-4.8,8.1-6.9c4.3-3.5,8.8-6.8,13.6-9.5c7.5-4.1,15.9-7.1,23.8-7.5c2.9-0.2,5.8-0.1,8.7,0.4c3.4,0.5,7,1.7,10.9,3.2
			c10,4,20,11,27.6,18.9c2.1,2.2,4.2,4.5,6.2,6.9c0.4,0.6,1,1.2,1.7,0.8C226.6,556.4,226.9,555.2,226.3,554.6z"/>
		<rect x="147" y="572.7" class="st5" width="110" height="50"/>
		<text transform="matrix(1 0 0 1 146.9823 603.3135)" class="st8 st9">You</text>
	</g>
	<g class="st2">
		<path class="st10" d="M102.4,592.7l121.9-389.1L102.4,592.7z"/>
		<line class="st11" x1="328.3" y1="509.7" x2="158.6" y2="271.8"/>
		<line class="st12" x1="195.7" y1="506.9" x2="442.4" y2="202.7"/>
	</g>
	<rect x="51" y="177.5" class="st13" width="152" height="78"/>
	<text transform="matrix(1 0 0 1 51.0216 208.0532)" class="st2 st8 st9">Stressor</text>
</g>
<g>
	<text transform="matrix(1 0 0 1 441.3945 999.4606)" class="st14 st15 st16">H</text>
	<text transform="matrix(1 0 0 1 609.0682 1002.4611)" class="st14 st15 st16">P</text>
	<text transform="matrix(1 0 0 1 702.2083 1001.4606)" class="st14 st15 st16">A</text>
	<text transform="matrix(1 0 0 1 478.0372 1069.8027)" class="st14 st15 st16">AXIS</text>
	<circle class="st17" cx="405.7" cy="966.3" r="40"/>
	<ellipse class="st18" cx="530.7" cy="1432.1" rx="35.8" ry="35.9"/>
	<circle class="st19" cx="612.4" cy="966.3" r="40"/>
	<ellipse class="st20" cx="601.4" cy="1246" rx="35" ry="33.1"/>
	<path class="st21" d="M570.8,962.2c-41.2,2.7-82.3,5.4-123.5,8.2"/>
	<path class="st21" d="M546.3,1396.2c13.4-39,26.8-78,40.2-117"/>
	<path class="st21" d="M598.2,1206.7c4.4-66.4,8.7-132.9,13.1-199.3"/>
	<rect x="489.3" y="1480" class="st5" width="114" height="38"/>
	<text transform="matrix(1 0 0 1 489.2832 1504.7461)" class="st15 st22">Cortisol </text>
	<rect x="379.6" y="1276.3" class="st5" width="17.2" height="1.3"/>
	<text transform="matrix(1 0 0 1 329.1184 1030.6628)" class="st23 st24">The </text>
	<text transform="matrix(1 0 0 1 378.8184 1030.6628)" class="st25 st24">hypothalamus </text>
	<text transform="matrix(1 0 0 1 329.1184 1064.2628)" class="st23 st24">releases a hormone </text>
	<text transform="matrix(1 0 0 1 329.1184 1097.8628)" class="st23 st24">that sends a signal</text>
	<text transform="matrix(1 0 0 1 329.1184 1131.4628)" class="st23 st24">to the pituitary gland </text>
	<rect x="664.2" y="1340.7" class="st5" width="4.2" height="1.8"/>
	<text transform="matrix(1 0 0 1 659.2576 976.7699)" class="st23 st24">The </text>
	<text transform="matrix(1 0 0 1 708.9575 976.7699)" class="st25 st24">pituitary gland </text>
	<text transform="matrix(1 0 0 1 659.2576 1010.3699)" class="st23 st24">releases a hormone </text>
	<text transform="matrix(1 0 0 1 659.2576 1043.97)" class="st23 st24">that stimulates the</text>
	<text transform="matrix(1 0 0 1 659.2576 1077.5698)" class="st23 st24">adrenal glands</text>
	<text transform="matrix(1 0 0 1 648.1445 1234.793)" class="st23 st24">The </text>
	<text transform="matrix(1 0 0 1 697.8445 1234.793)" class="st25 st24">adrenal glands </text>
	<text transform="matrix(1 0 0 1 648.1445 1268.3929)" class="st23 st24">produce the </text>
	<text transform="matrix(1 0 0 1 648.1445 1301.9929)" class="st23 st24">stress hormone </text>
	<text transform="matrix(1 0 0 1 648.1445 1335.5929)" class="st23 st24">cortisol </text>
	<text transform="matrix(1 0 0 1 490.4983 1539.9758)" class="st23 st24">Circulate the body and causes:</text>
	<text transform="matrix(1 0 0 1 481.0417 1575.4399)" class="st23 st24">- the body to stay on high alert</text>
	<text transform="matrix(1 0 0 1 481.0417 1609.0398)" class="st23 st24">- increases blood sugar</text>
	<text transform="matrix(1 0 0 1 481.0417 1642.6399)" class="st23 st24">- changes the way the immune </text>
	<text transform="matrix(1 0 0 1 481.0417 1676.2399)" class="st23 st24">system responds </text>
	<text transform="matrix(1 0 0 1 481.0417 1709.8398)" class="st23 st24">- suppresses the digestive system, </text>
	<text transform="matrix(1 0 0 1 481.0417 1743.4399)" class="st23 st24">the reproductive system and growth </text>
	<text transform="matrix(1 0 0 1 481.0417 1777.0398)" class="st23 st24">processes</text>
	<polygon class="st5" points="414.2,638.6 414.2,638.6 414.2,638.6 	"/>
	<text transform="matrix(1 0 0 1 391.2445 983.2328)" class="st15 st16">H</text>
	<text transform="matrix(1 0 0 1 599.9147 983.2328)" class="st15 st16">P</text>
	<text transform="matrix(1 0 0 1 582.3663 1258.9321)" class="st15 st16">A</text>
	<polygon class="st5" points="319.1,657.9 319.1,657.9 319.1,657.9 	"/>
	<text transform="matrix(1 0 0 1 470.3857 1001.6384)" class="st14 st15 st26">ypothalamus</text>
</g>
<g>
	<rect x="114.3" y="153.9" class="st27" width="710" height="510"/>
	<text transform="matrix(1 0 0 1 228.0871 235.707)" class="st8 st28">When we start feeling stressed, </text>
	<text transform="matrix(1 0 0 1 228.0871 301.207)" class="st8 st28">a series of signals are sent </text>
	<text transform="matrix(1 0 0 1 228.0871 366.807)" class="st8 st28">through our bodies producing </text>
	<text transform="matrix(1 0 0 1 228.0871 432.307)" class="st8 st28">adrenaline to help us deal with</text>
	<text transform="matrix(1 0 0 1 228.0871 497.907)" class="st8 st28">the stressor — either confront</text>
	<text transform="matrix(1 0 0 1 228.0871 563.407)" class="st8 st28">it or run away from it.</text>
</g>
<g>
	<rect x="950.3" y="1242.4" class="st27" width="710" height="480"/>
	<text transform="matrix(1 0 0 1 1061.1853 1349.9307)" class="st8 st29">If we still feel stressed after the</text>
	<text transform="matrix(1 0 0 1 1061.1853 1409.9307)" class="st8 st29">initial adrenaline rush passes, </text>
	<text transform="matrix(1 0 0 1 1061.1853 1469.9307)" class="st8 st29">then another series of distress</text>
	<text transform="matrix(1 0 0 1 1061.1853 1529.9307)" class="st8 st29">signals are sent through our bodies</text>
	<text transform="matrix(1 0 0 1 1061.1853 1589.9307)" class="st8 st29">releasing the stress hormone, </text>
	<text transform="matrix(1 0 0 1 1061.1853 1649.9307)" class="st8 st29">cortisol.</text>
</g>
<g>
	<circle class="st30" cx="1144.9" cy="388.8" r="50"/>
	<circle class="st31" cx="1107.4" cy="138.9" r="27"/>
	<path class="st21" d="M1236.7,233.9c-23.2,34.1-46.5,68.2-69.7,102.3"/>
	<path class="st21" d="M1211.9,177.1c-24.9-7.5-49.8-15-74.8-22.5"/>
	<path class="st21" d="M1248.4,541.4c0.1,21,0.1,42,0.2,63"/>
	<ellipse class="st17" cx="1250.3" cy="195.3" rx="35.8" ry="35.9"/>
	<rect x="1293.9" y="147.4" class="st5" width="178" height="24"/>
	<text transform="matrix(1 0 0 1 1293.8706 168.8124)" class="st8 st24">Hypothalamus </text>
	<rect x="1293.9" y="432.3" class="st5" width="212.7" height="28.8"/>
	<text transform="matrix(1 0 0 1 1293.8701 453.7594)" class="st8 st24">Adrenal Glands</text>
	<rect x="923.2" y="386.4" class="st5" width="196.1" height="95.1"/>
	<text transform="matrix(1 0 0 1 923.2379 407.8336)" class="st8 st24">Sympathetic </text>
	<text transform="matrix(1 0 0 1 923.2379 441.4336)" class="st8 st24">Nervous System </text>
	<circle class="st30" cx="1144.9" cy="388.8" r="50"/>
	<circle class="st31" cx="1107.4" cy="138.9" r="27"/>
	<path class="st21" d="M1236.7,233.9c-23.2,34.1-46.5,68.2-69.7,102.3"/>
	<path class="st21" d="M1211.9,177.1c-24.9-7.5-49.8-15-74.8-22.5"/>
	<ellipse class="st17" cx="1250.3" cy="195.3" rx="35.8" ry="35.9"/>
	<circle class="st30" cx="1144.9" cy="388.8" r="50"/>
	<circle class="st31" cx="1107.4" cy="138.9" r="27"/>
	<path class="st21" d="M1236.7,233.9c-23.2,34.1-46.5,68.2-69.7,102.3"/>
	<path class="st21" d="M1211.9,177.1c-24.9-7.5-49.8-15-74.8-22.5"/>
	<ellipse class="st17" cx="1250.3" cy="195.3" rx="35.8" ry="35.9"/>
	<rect x="955.9" y="99.9" class="st5" width="121.5" height="24"/>
	<text transform="matrix(1 0 0 1 955.9304 121.3124)" class="st8 st24">Amygdala</text>
	<circle class="st30" cx="1144.9" cy="388.8" r="50"/>
	<circle class="st31" cx="1107.4" cy="138.9" r="30"/>
	<path class="st21" d="M1175.7,432.3c14.4,12.6,28.7,25.1,43.1,37.7"/>
	<path class="st21" d="M1236.7,233.9c-23.2,34.1-46.5,68.2-69.7,102.3"/>
	<path class="st21" d="M1211.9,177.1c-24.9-7.5-49.8-15-74.8-22.5"/>
	<circle class="st20" cx="1248.5" cy="498.3" r="37.5"/>
	<circle class="st17" cx="1250.3" cy="195.3" r="37.5"/>
	<text transform="matrix(1 0 0 1 898.998 159.1318)" class="st23 st24">Starting in the </text>
	<text transform="matrix(1 0 0 1 898.998 192.7318)" class="st23 st24">brain, the amygdala </text>
	<text transform="matrix(1 0 0 1 898.998 226.3319)" class="st23 st24">tells the hypothalamus </text>
	<text transform="matrix(1 0 0 1 898.998 259.9319)" class="st23 st24">we’re feeling stressed </text>
	<text transform="matrix(1 0 0 1 898.998 293.5319)" class="st23 st24">about something </text>
	<rect x="899" y="655.6" class="st5" width="16" height="9.2"/>
	<text transform="matrix(1 0 0 1 1296.0408 200.5653)" class="st23 st24">The hypothalamus receives </text>
	<text transform="matrix(1 0 0 1 1296.0408 234.1652)" class="st23 st24">a distress signal from the </text>
	<text transform="matrix(1 0 0 1 1296.0408 267.7653)" class="st23 st24">amygdala and alerts the </text>
	<text transform="matrix(1 0 0 1 1296.0408 301.3652)" class="st23 st24">sympathetic nervous system </text>
	<text transform="matrix(1 0 0 1 1293.8687 485.8157)" class="st23 st24">Release adrenaline and noradrenaline  </text>
	<text transform="matrix(1 0 0 1 1293.8687 519.4157)" class="st23 st24">into the body preparing </text>
	<text transform="matrix(1 0 0 1 1293.8687 553.0157)" class="st23 st24">us to either confront the stressor </text>
	<text transform="matrix(1 0 0 1 1293.8687 586.6157)" class="st23 st24">or run away (fight or flight) </text>
	<polygon class="st5" points="1370.7,880.4 1370.7,880.4 1370.7,880.4 	"/>
	<polygon class="st5" points="1216.4,741.2 1216.4,741.2 1216.4,741.2 	"/>
	<ellipse class="st32" cx="1215.5" cy="634.4" rx="25.7" ry="24.4"/>
	<ellipse class="st33" cx="1281.4" cy="634.4" rx="25.7" ry="24.4"/>
	<rect x="1138.7" y="669" class="st5" width="333.1" height="24"/>
	<text transform="matrix(1 0 0 1 1138.7291 690.3844)" class="st8 st24">Adrenaline &amp; Noradrenaline </text>
	<polygon class="st5" points="1216.4,741.2 1216.4,741.2 1216.4,741.2 	"/>
	<ellipse class="st32" cx="1215.5" cy="634.4" rx="25.7" ry="24.4"/>
	<ellipse class="st33" cx="1281.4" cy="634.4" rx="25.7" ry="24.4"/>
	<polygon class="st5" points="1216.4,741.2 1216.4,741.2 1216.4,741.2 	"/>
	<ellipse class="st32" cx="1215.5" cy="634.4" rx="25.7" ry="24.4"/>
	<ellipse class="st33" cx="1281.4" cy="634.4" rx="25.7" ry="24.4"/>
	<text transform="matrix(1 0 0 1 1133.3101 723.0925)" class="st23 st24">Circulate the body and cause:</text>
	<polygon class="st5" points="1216.4,741.2 1216.4,741.2 1216.4,741.2 	"/>
	<circle class="st32" cx="1215.5" cy="634.4" r="30"/>
	<circle class="st34" cx="1281.4" cy="634.4" r="30"/>
	<text transform="matrix(1 0 0 1 1130.8135 750.6121)" class="st23 st24">- increase in blood pressure </text>
	<text transform="matrix(1 0 0 1 1130.8135 784.212)" class="st23 st24">- higher blood sugar levels </text>
	<text transform="matrix(1 0 0 1 1130.8135 817.812)" class="st23 st24">- faster heartbeat</text>
	<text transform="matrix(1 0 0 1 1130.8135 851.412)" class="st23 st24">- faster breathing </text>
	<text transform="matrix(1 0 0 1 1130.8135 885.012)" class="st23 st24">- other senses to heighten</text>
	<text transform="matrix(1 0 0 1 1130.8135 918.6121)" class="st23 st24">- extra oxygen in the brain  </text>
	<text transform="matrix(1 0 0 1 1130.8135 952.212)" class="st23 st24">making us more alert </text>
	<text transform="matrix(1 0 0 1 898.3922 480.5369)" class="st23 st24">Alerts the </text>
	<text transform="matrix(1 0 0 1 898.3922 514.1369)" class="st23 st24">adrenal glands</text>
	<polygon class="st5" points="1258.8,541.4 1258.8,541.4 1258.8,541.4 	"/>
</g>
<line class="st11" x1="793.8" y1="912.6" x2="1073.2" y2="547.9"/>
<text transform="matrix(1 0 0 1 1836.043 7.6909)" class="st35 st36">L</text>
</svg>
